{"title":"K-9 PI 2002 DVDrips English Klam","uid":6584553,"size":1274168004,"categoryP":"video","categoryS":"movies","magnet":"?xt=urn:btih:d299830f4e5c72423b86ff72f234caf654eb1766&amp;dn=K-9+PI+2002+DVDrips+English+Klam&amp;tr=udp%3A%2F%2Ftracker.openbittorrent.com%3A80&amp;tr=udp%3A%2F%2Fopen.demonii.com%3A1337&amp;tr=udp%3A%2F%2Ftracker.coppersurfer.tk%3A6969&amp;tr=udp%3A%2F%2Fexodus.desync.com%3A6969","seeders":1,"leechers":0,"uploader":"Klambake","files":-1,"time":1312551268,"description":"With: James Belushi, Kevin Durand and Gary Basaraba\n\nDooley staat op het punt om met pensioen te gaan wanneer hij toevallig op een gewapende overval in een hightech computerbedrijf stuit. Plotseling is hij de verdachte en zijn pensioen wordt uitgesteld tot de echte boeven opgepakt zijn. Nu moeten Dooley en Jerry Lee dus op pad als privÃƒÂ©-detectives om de echte daders op te sporen.\n\nDooley and his K-9 partner Jerry Lee are ready to retire from the police force. But before he can retire with his pension he must work as a P.I. to find a set of high tech computer chips. \n\n------------------ Dutch Friends ------------------\nYou can find my Friends at: http://www.Film-Test.nl \n------ They got my dutchs subs ---- and more ------\n\nGeneral:\n\nComplete name                    : K-9 PI\\K-9 PI.avi\nFormat                           : AVI\nFormat/Info                      : Audio Video Interleave\nFile size                        : 1.19 GiB\nDuration                         : 1h 30mn\nOverall bit rate                 : 1 867 Kbps\n\nVideo:\n\nFormat                           : MPEG-4 Visual\nFormat profile                   : Simple@L3\nFormat settings, BVOP            : No\nFormat settings, QPel            : No\nFormat settings, GMC             : No warppoints\nFormat settings, Matrix          : Default (H.263)\nCodec ID                         : XVID\nCodec ID/Hint                    : XviD\nDuration                         : 1h 30mn\nBit rate                         : 1 472 Kbps\nWidth                            : 652 pixels\nHeight                           : 352 pixels\nDisplay aspect ratio             : 1.852\nFrame rate                       : 25.000 fps\nColor space                      : YUV\nChroma subsampling               : 4:2:0\nBit depth                        : 8 bits\nScan type                        : Progressive\nBits/(Pixel*Frame)               : 0.257\nStream size                      : 958 MiB (79%)\nWriting library                  : XviD 1.1.2 (UTC 2006-11-01)\n\nAudio:\n\nFormat                           : AC-3\nFormat/Info                      : Audio Coding 3\nMode extension                   : CM (complete main)\nCodec ID                         : 2000\nDuration                         : 1h 30mn\nBit rate mode                    : Constant\nBit rate                         : 384 Kbps\nChannel(s)                       : 6 channels\nChannel positions                : Front: L C R, Side: L R, LFE\nSampling rate                    : 48.0 KHz\nBit depth                        : 16 bits\nStream size                      : 250 MiB (21%)\nAlignment                        : Aligned on interleaves\nInterleave, duration             : 32 ms (0.80 video frame)\n\n","torrent":{"xt":"urn:btih:d299830f4e5c72423b86ff72f234caf654eb1766","amp;dn":"K-9+PI+2002+DVDrips+English+Klam","amp;tr":["udp%3A%2F%2Ftracker.openbittorrent.com%3A80","udp%3A%2F%2Fopen.demonii.com%3A1337","udp%3A%2F%2Ftracker.coppersurfer.tk%3A6969","udp%3A%2F%2Fexodus.desync.com%3A6969"],"infoHash":"d299830f4e5c72423b86ff72f234caf654eb1766","infoHashBuffer":{"type":"Buffer","data":[210,153,131,15,78,92,114,66,59,134,255,114,242,52,202,246,84,235,23,102]},"announce":[],"urlList":[]}}